<svg xmlns="http://www.w3.org/2000/svg" width="44.809" height="44.809" viewBox="0 0 44.809 44.809"><defs><style>.a{fill:#fff;}</style></defs><path class="a" d="M38.1,8.761a22.211,22.211,0,0,0-34.947,26.8L0,47.059l11.772-3.091a22.137,22.137,0,0,0,10.612,2.7h.01a22.418,22.418,0,0,0,22.414-22.2A22.292,22.292,0,0,0,38.1,8.761Zm-15.7,34.167a18.423,18.423,0,0,1-9.4-2.57l-.67-.4-6.981,1.83L7.2,34.976l-.44-.7a18.491,18.491,0,1,1,34.3-9.812A18.662,18.662,0,0,1,22.394,42.928ZM32.516,29.105c-.55-.28-3.281-1.62-3.791-1.8s-.88-.28-1.25.28-1.43,1.8-1.76,2.18-.65.42-1.2.14c-3.261-1.63-5.4-2.911-7.551-6.6-.57-.98.57-.91,1.63-3.031a1.028,1.028,0,0,0-.05-.97c-.14-.28-1.25-3.011-1.71-4.121-.45-1.08-.91-.93-1.25-.95-.32-.02-.69-.02-1.06-.02a2.055,2.055,0,0,0-1.48.69,6.234,6.234,0,0,0-1.94,4.631c0,2.731,1.99,5.371,2.26,5.741s3.911,5.971,9.482,8.382c3.521,1.52,4.9,1.65,6.661,1.39,1.07-.16,3.281-1.34,3.741-2.641a4.64,4.64,0,0,0,.32-2.641C33.436,29.515,33.066,29.375,32.516,29.105Z" transform="translate(0 -2.25)"/></svg>