<svg xmlns="http://www.w3.org/2000/svg" xmlns:xlink="http://www.w3.org/1999/xlink" width="53" height="87" viewBox="0 0 53 87"><defs><style>.a{fill:url(#a);}.b{clip-path:url(#b);}</style><linearGradient id="a" x1="0.5" x2="0.5" y2="1" gradientUnits="objectBoundingBox"><stop offset="0" stop-color="#eec687"/><stop offset="0.236" stop-color="#efc981"/><stop offset="0.507" stop-color="#e3c58f"/><stop offset="1" stop-color="#ead4ac"/></linearGradient><clipPath id="b"><rect class="a" width="53" height="87" transform="translate(0.401 0)"/></clipPath></defs><g transform="translate(-0.401 -0.206)"><g class="b" transform="translate(0 0.206)"><path class="a" d="M237.413,87.4a.59.59,0,0,0-.479-.215,5.867,5.867,0,0,1-3.516-1.757,6.75,6.75,0,0,1-1.667-2.39,7.754,7.754,0,0,1-.6-2.9q0-15.157,0-30.315c0-.758.117-1.445.93-1.784a1.748,1.748,0,0,1,.7-.1c1.167,0,2.334-.017,3.5.012.458.011.584-.139.583-.591q-.019-16.168-.012-32.336a3.041,3.041,0,0,0-.014-.974c-.123-.342-.564-.194-.854-.306a7.173,7.173,0,0,1-4-3.471,6.685,6.685,0,0,1-.6-4.823A7.293,7.293,0,0,1,235.334.63a4.662,4.662,0,0,1,1.748-.5c.077-.006.148-.086.221-.132h1.969c.057.206.233.207.393.214a4.157,4.157,0,0,1,1.816.618,7.433,7.433,0,0,1,1.772,1.344,8.071,8.071,0,0,1,1.531,2.358c.27.587.174,1.25.5,1.8V7.647c-.185.164-.156.409-.175.606a6.335,6.335,0,0,1-1.683,3.521,5.375,5.375,0,0,1-2.825,1.846c-.909.21-.912.71-.911,1.435q.028,16.153,0,32.307c0,.453.115.6.571.581.964-.031,1.933.038,2.895-.02,1.064-.063,1.851.211,2.123,1.346V80.95c-.265.412-.15.909-.3,1.348a7.4,7.4,0,0,1-1.845,3.019,6.248,6.248,0,0,1-3.577,1.875c-.154.02-.339-.005-.4.2Zm-3.4-18.738h0q0,5.707,0,11.413a4.208,4.208,0,0,0,1.9,3.832,4.217,4.217,0,0,0,6.523-3.565q-.006-11.714.008-23.427c0-.411-.093-.558-.542-.554q-3.636.036-7.272,0c-.493-.006-.636.115-.634.617.02,3.9.011,7.791.011,11.686m4.192-57.4a4.163,4.163,0,0,0,4.243-4.239,4.213,4.213,0,0,0-8.426-.008,4.143,4.143,0,0,0,4.183,4.246m.032,42.352v0c1.239,0,2.478-.012,3.716.007.386.006.512-.127.5-.506a16.618,16.618,0,0,1,0-1.8c.029-.447-.128-.618-.566-.616q-3.743.012-7.487,0c-.329,0-.393.142-.386.43.016.673.028,1.347,0,2.019-.017.365.1.472.457.468,1.257-.015,2.514-.006,3.771-.006" transform="translate(-191.69 -0.106)"/><path class="a" d="M115.2,87.4a.489.489,0,0,0-.418-.213,5.892,5.892,0,0,1-3.581-1.834,6.805,6.805,0,0,1-1.775-2.737,9.665,9.665,0,0,1-.4-3.214q.007-8.981.015-17.961,0-5.814-.041-11.627c-.006-1.2.48-1.906,1.822-1.88,1.093.022,2.188-.024,3.279.021.524.021.658-.172.655-.649-.012-2,0-4,0-6.005,0-5.7-.03-11.392.034-17.088a2.012,2.012,0,0,0-1.045-1.773c-1.273-.958-2.5-1.973-3.738-2.974a24.608,24.608,0,0,1-2.018-1.655,1.349,1.349,0,0,1-.085-1.679c.827-1.025,1.633-2.067,2.481-3.077.758-.9,1.442-1.876,2.208-2.78.087-.1.13-.2-.025-.314a5.273,5.273,0,0,1-1.928-2.922,5.414,5.414,0,0,1-.035-2.686A5.521,5.521,0,0,1,113.286.77a2.906,2.906,0,0,1,1.5-.556A.438.438,0,0,0,115.2,0h1.531c.505.285,1.1.254,1.632.514a6.08,6.08,0,0,1,2.553,2.341,5.294,5.294,0,0,1,.358,4.964,5.29,5.29,0,0,1-2.8,2.892,5.128,5.128,0,0,1-2.9.471c-.267-.038-.344.191-.455.328-1.267,1.568-2.52,3.148-3.776,4.725-.318.4-.215.631.4,1.089,1.155.861,2.288,1.749,3.372,2.7.536.47,1.124.881,1.689,1.318a1.357,1.357,0,0,1,.6,1.147q-.017,9.254,0,18.508c0,2.111.012,4.222,0,6.333,0,.463.119.635.617.617,1.128-.04,2.259-.019,3.389-.011,1.146.007,1.7.493,1.7,1.642.025,3.73.006,7.461.011,11.192.009,6.406.031,12.812.03,19.218a7.2,7.2,0,0,1-1.847,5.074,6.066,6.066,0,0,1-3.861,2.127.575.575,0,0,0-.483.207ZM111.808,68.55q0,5.758,0,11.516a4.468,4.468,0,0,0,1.135,3.172,4.315,4.315,0,0,0,5.994.233,4.437,4.437,0,0,0,1.382-3.451c.027-3.42.011-6.841.01-10.261,0-4.257-.01-8.514,0-12.772,0-.474-.118-.637-.632-.631q-3.634.047-7.268,0c-.494-.005-.639.113-.636.621.022,3.857.012,7.714.011,11.571m4.281-14.932c1.255,0,2.511-.01,3.766.007.353,0,.488-.1.475-.464-.024-.653-.029-1.309,0-1.962.014-.378-.118-.5-.492-.495q-3.82.01-7.641-.014c-.286,0-.389.11-.385.385.009.654.024,1.309,0,1.962-.02.437.1.6.575.591,1.236-.034,2.474-.011,3.711-.011M116,8.416a2.72,2.72,0,0,0,2.891-2.82,2.824,2.824,0,0,0-5.647.022A2.72,2.72,0,0,0,116,8.416" transform="translate(-89.272 -0.106)"/><path class="a" d="M11.267,0c0,.783-.024,1.567.02,2.347.025.441-.144.5-.528.5-2.424-.016-4.849.008-7.272-.024-.548-.007-.688.165-.647.681a12.162,12.162,0,0,1,0,1.692c-.022.377.082.5.476.5,1.257-.024,2.515-.01,3.773-.008A1.218,1.218,0,0,1,8.42,6.941c.026.417.016.837.016,1.255q0,19.469,0,38.938c0,.8,0,.8.8.8,1.057,0,2.116.033,3.171-.008a1.57,1.57,0,0,1,1.737,1.716q-.016,15.209-.009,30.419a7.308,7.308,0,0,1-1.858,4.979A7.728,7.728,0,0,1,9,87.148c-.325.118-.737-.094-1.012.248H6.126c-.067-.287-.311-.195-.488-.211a2.333,2.333,0,0,1-.691-.115,7.577,7.577,0,0,1-2.863-1.832A5.62,5.62,0,0,1,.228,81.21c0-.123.094-.393-.228-.259v-31.9c.06-.039.164-.069.174-.118.174-.835.8-.992,1.509-1,1.093-.008,2.186-.023,3.278.009.491.014.63-.126.629-.633Q5.567,31.43,5.579,15.549c0-2.219-.009-4.439.009-6.658,0-.383-.105-.5-.489-.491-1.238.023-2.478-.018-3.715.023A1.384,1.384,0,0,1,.292,7.841C.14,7.681.183,7.384,0,7.21V1.092C.384,1.07.128.69.326.518.594.283.936.212,1.2,0Zm0,68.725h0c0-3.948-.01-7.9.013-11.845,0-.467-.16-.52-.557-.518-2.441.014-4.883.018-7.324-.008-.472,0-.563.145-.562.585q.02,11.572.008,23.145a4.52,4.52,0,0,0,.8,2.741,4.11,4.11,0,0,0,4.812,1.508A4.015,4.015,0,0,0,11.266,80.3q.009-5.786,0-11.572M7.048,53.615c1.257,0,2.514-.009,3.771.006.348,0,.477-.087.458-.461-.034-.653-.026-1.31,0-1.964.015-.345-.081-.491-.443-.491q-3.771.009-7.542-.005c-.36,0-.462.161-.449.5.024.636.034,1.275,0,1.91-.023.433.159.515.542.509,1.22-.018,2.441-.007,3.662-.008" transform="translate(0 -0.106)"/></g></g></svg>