<svg xmlns="http://www.w3.org/2000/svg" xmlns:xlink="http://www.w3.org/1999/xlink" width="85" height="87" viewBox="0 0 85 87"><defs><style>.a{clip-path:url(#a);}</style><clipPath id="a"><rect width="85" height="87" transform="translate(0 -0.249)"/></clipPath></defs><g transform="translate(0 0.249)"><g class="a" transform="translate(0 0)"><path d="M40.393,0h16.77a5.266,5.266,0,0,0,1.691.478,12.943,12.943,0,0,1,9.477,12.738q.02,13.07-.006,26.14c0,.762.111,1.12,1,1.068,1.388-.082,1.9.484,1.9,1.864,0,3.155.027,6.31-.023,9.464-.011.7.249.926.846,1.082,2.05.535,4.1,1.067,6.132,1.678a18.246,18.246,0,0,1,4.073,1.36,6.355,6.355,0,0,1,2.858,4.176v1.623a5.053,5.053,0,0,0-.183.5,5.739,5.739,0,0,1-7.145,4.207c-1.443-.376-2.867-.824-4.3-1.229a40.539,40.539,0,0,0-6.123-1.652,25.363,25.363,0,0,0-13.446,2.481c-.549.246-.448.466-.173.844,1.077,1.48,2.2,2.935,3.175,4.479.553.873,1.023.868,1.857.428,2.413-1.273,4.879-2.445,7.31-3.684a1.582,1.582,0,0,1,1.9.221c.9.744,1.824,1.467,2.737,2.2C74.19,73.239,77.671,76,81.117,78.8a4.3,4.3,0,0,1-.282,7.006,11.562,11.562,0,0,1-1.492.749H22.721c-.065-.055-.123-.142-.2-.159a4.322,4.322,0,0,1-3.183-4.807,4.528,4.528,0,0,1,4.8-3.712c6.279.07,12.561.026,18.841.019.251,0,.533.1.822-.158-.871-1.217-1.761-2.412-2.592-3.647-.306-.455-.566-.454-1.02-.25a11.894,11.894,0,0,1-4.5,1.152A11.09,11.09,0,0,1,24.357,67.4q-1.224-3.329-2.473-6.648A4.218,4.218,0,0,1,24,55.493a9.124,9.124,0,0,1,1.4-.6c.452-.141.609-.258.261-.7-.775-.994-1.508-2.021-2.249-3.04a.7.7,0,0,0-.6-.308,4.321,4.321,0,0,1-3.494-1.92q-5.391-7.441-10.762-14.9A4.45,4.45,0,0,1,7.61,31.45a.706.706,0,0,0-.559-.758A4.168,4.168,0,0,1,5.012,29.13C3.351,26.686,1.374,24.46,0,21.819V19.655a7.941,7.941,0,0,1,2.816-3.131,4.372,4.372,0,0,1,6.272,1.03c1.346,1.843,2.675,3.7,4.021,5.542a4.581,4.581,0,0,1,.957,2.659c.005.259-.051.508.338.616a5.12,5.12,0,0,1,2.708,2.25q5.018,6.988,10.068,13.953c1.906,2.637,1.665,4.74-.826,6.8-.322.266-.4.4-.112.758.787.985,1.534,2,2.259,3.033a.559.559,0,0,0,.811.223q3.338-1.331,6.7-2.6a.813.813,0,0,0,.608-.922c-.027-2.524-.014-5.048-.009-7.572,0-.327-.086-.691.124-.967.4-.522.113-.824-.241-1.211a10.06,10.06,0,0,1-2.761-6.573c-.045-1.255.524-1.8,1.8-1.8q5-.007,10.006,0c2.554,0,5.108-.009,7.662.012.517,0,.757-.1.734-.688-.047-1.2.011-2.4-.025-3.6a1.338,1.338,0,0,0-1.341-1.492c-.857-.048-1.337.364-1.527,1.308-.241,1.2-.851,1.731-1.766,1.547a1.654,1.654,0,0,1-1.093-2.078,4.333,4.333,0,0,1,8.615.694c.01,1.232.025,2.464,0,3.7-.01.473.145.63.616.619q1.8-.039,3.606,0a1.452,1.452,0,0,1,1.552,1.595,9.767,9.767,0,0,1-.6,3.25,11.471,11.471,0,0,1-2.388,3.8c1.787,0,3.372-.041,4.954.018.745.028.947-.179.944-.933-.027-8.744-.016-17.488-.018-26.232A10.091,10.091,0,0,0,55.128,2.884c-3.666-.015-7.341.154-10.995-.053a7.623,7.623,0,0,0-6.952,2.908c-.475.594-.639.928-.232,1.649A8.562,8.562,0,0,1,34.4,18.58a1.473,1.473,0,0,1-2.166-.152Q27.374,13.6,22.537,8.746a1.5,1.5,0,0,1-.181-2.233A8.634,8.634,0,0,1,33.724,4.051c.432.25.732.4,1.148-.052a12.806,12.806,0,0,1,5.52-4M51.042,83.672q13.429,0,26.857.007c.834,0,1.579-.081,1.893-1,.309-.907-.2-1.456-.848-1.975-3.8-3.025-7.61-6.047-11.379-9.114a1.436,1.436,0,0,0-1.826-.186c-5.88,2.978-11.784,5.907-17.67,8.872a4.593,4.593,0,0,1-2.147.518q-10.9-.027-21.81-.01a3.29,3.29,0,0,0-.718.025,1.441,1.441,0,0,0,.073,2.852,5.2,5.2,0,0,0,.81.014H51.042M48.49,49.393a4.3,4.3,0,0,0-2.1.44q-4.1,1.6-8.2,3.193c-4.184,1.627-8.371,3.246-12.55,4.885a1.473,1.473,0,0,0-.936,2.219c.24.613.479,1.226.727,1.835.484,1.188.195,1.2,1.559.692q10.133-3.786,20.252-7.608a2.417,2.417,0,0,1,1.65-.073c2.828.854,5.672,1.659,8.508,2.487q10.446,3.048,20.893,6.1a2.874,2.874,0,0,0,3.854-2.29c.3-1.519-.635-2.825-2.437-3.33Q66.4,54.2,53.085,50.5a22.924,22.924,0,0,0-4.6-1.107M59.351,61.171a3.83,3.83,0,0,0-.439-.241Q53.76,59.413,48.606,57.9a1.587,1.587,0,0,0-1.047.127c-1.848.7-3.7,1.376-5.552,2.069q-7.315,2.743-14.629,5.487c-.339.127-.606.189-.433.674a8.357,8.357,0,0,0,9.344,5.768,17.345,17.345,0,0,0,6.683-2.975c5.084-3.227,10.1-6.59,16.379-7.879m8.994-9.415c0-2.543-.033-5,.019-7.459.017-.795-.146-1.052-1.006-1.048-8.6.036-17.191.023-25.786.022-2.073,0-2.076,0-2.086,2.1-.006,1.328,0,2.656,0,4.056,2.18-.846,4.216-1.633,6.249-2.427a6.935,6.935,0,0,1,4.4-.3c2.567.686,5.123,1.413,7.683,2.125,3.476.967,6.952,1.935,10.523,2.93m-31.5-17.135a7.03,7.03,0,0,0,6.8,5.768c2.915.017,5.83,0,8.745,0A7.281,7.281,0,0,0,59.3,35.561c.243-.655.265-.966-.643-.96-6.641.04-13.283.022-19.924.022ZM25.505,45.845a2.06,2.06,0,0,0-.464-1.319q-2.588-3.571-5.164-7.152-2.662-3.684-5.33-7.364c-.839-1.154-1.5-1.257-2.638-.437-.122.087-.25.166-.373.253-1.262.894-1.369,1.526-.474,2.761q1.295,1.785,2.586,3.574Q17.574,41.6,21.5,47.034c.811,1.119,1.458,1.223,2.568.443.294-.207.59-.413.875-.633a1.381,1.381,0,0,0,.562-1M54.9,73.429c-.076-.116-.153-.245-.239-.367-1.2-1.688-2.409-3.367-3.589-5.067-.266-.383-.472-.316-.8-.108q-3.2,2.016-6.413,4c-.364.224-.442.4-.176.769,1.062,1.454,2.106,2.92,3.146,4.389a.558.558,0,0,0,.827.223c2.3-1.166,4.609-2.312,6.914-3.468.148-.074.358-.105.332-.366M35.194,11.314A3.533,3.533,0,0,0,34.97,10.2a5.786,5.786,0,0,0-9.117-3.219c-.424.346-.485.544-.062.962q3.648,3.6,7.235,7.26c.413.422.611.277.9-.1a6.714,6.714,0,0,0,1.271-3.8m-24,14.386a3.061,3.061,0,0,0-.286-.678c-1.426-2-2.844-4-4.32-5.966a1.342,1.342,0,0,0-1.931-.251c-.255.156-.491.343-.735.516-1.248.888-1.352,1.489-.448,2.754,1.062,1.486,2.14,2.961,3.207,4.445,1.426,1.984,2.079,2.055,3.917.425a1.8,1.8,0,0,0,.6-1.246" transform="translate(0 0.195)"/></g></g></svg>