<svg xmlns="http://www.w3.org/2000/svg" width="46.819" height="46.809" viewBox="0 0 46.819 46.809"><defs><style>.a{fill:#fff;}</style></defs><path class="a" d="M23.41,13.641a12,12,0,1,0,12,12A11.982,11.982,0,0,0,23.41,13.641Zm0,19.8a7.8,7.8,0,1,1,7.8-7.8,7.817,7.817,0,0,1-7.8,7.8ZM38.7,13.15a2.8,2.8,0,1,1-2.8-2.8A2.793,2.793,0,0,1,38.7,13.15Zm7.949,2.841c-.178-3.75-1.034-7.071-3.781-9.808S36.81,2.59,33.061,2.4c-3.865-.219-15.448-.219-19.313,0C10.009,2.58,6.687,3.436,3.94,6.173S.347,12.231.159,15.981c-.219,3.865-.219,15.448,0,19.313.178,3.75,1.034,7.071,3.781,9.808S10,48.694,13.748,48.882c3.865.219,15.448.219,19.313,0,3.75-.178,7.071-1.034,9.808-3.781s3.593-6.058,3.781-9.808c.219-3.865.219-15.438,0-19.3ZM41.657,39.44a7.9,7.9,0,0,1-4.45,4.45c-3.081,1.222-10.393.94-13.8.94s-10.727.272-13.8-.94a7.9,7.9,0,0,1-4.45-4.45c-1.222-3.081-.94-10.393-.94-13.8s-.272-10.727.94-13.8a7.9,7.9,0,0,1,4.45-4.45c3.081-1.222,10.393-.94,13.8-.94s10.727-.272,13.8.94a7.9,7.9,0,0,1,4.45,4.45c1.222,3.081.94,10.393.94,13.8S42.879,36.369,41.657,39.44Z" transform="translate(0.005 -2.238)"/></svg>