<svg xmlns="http://www.w3.org/2000/svg" xmlns:xlink="http://www.w3.org/1999/xlink" width="64.769" height="71.107" viewBox="0 0 64.769 71.107"><defs><style>.a{fill:url(#a);}.b{clip-path:url(#b);}</style><linearGradient id="a" x1="0.5" x2="0.5" y2="1" gradientUnits="objectBoundingBox"><stop offset="0" stop-color="#eec687"/><stop offset="0.236" stop-color="#efc981"/><stop offset="0.507" stop-color="#e3c58f"/><stop offset="1" stop-color="#ead4ac"/></linearGradient><clipPath id="b"><rect class="a" width="64.769" height="71.107"/></clipPath></defs><g transform="translate(-10)"><g class="b" transform="translate(10)"><path class="a" d="M49.057,0A2.854,2.854,0,0,0,49.5.153,4.6,4.6,0,0,1,53.54,4.177a2.388,2.388,0,0,0,.715,1.376C55.521,6.778,56.763,8.028,58,9.281a.712.712,0,0,0,.895.238,3.6,3.6,0,0,1,4.551,1.361,3.7,3.7,0,0,1-.675,4.731q-8.07,8.078-16.15,16.145Q27.9,50.479,9.17,69.2c-2.141,2.141-4.6,2.5-6.929.961A4.961,4.961,0,0,1,.154,67.054,2.365,2.365,0,0,0,0,66.692V64.929c.8-2.462,2.859-3.921,4.569-5.637Q17.828,45.979,31.136,32.715a7.737,7.737,0,0,1,4.972-2.437A5.149,5.149,0,0,0,39.354,28.7c2.075-2.079,4.14-4.17,6.237-6.226.437-.428.407-.652-.032-1.054-.963-.884-1.865-1.835-2.788-2.763-.268-.27-.454-.593-.751.034a.619.619,0,0,1-1.117.127,7.244,7.244,0,0,1-1.823-5.292,3.209,3.209,0,0,1,2.608-2.8A8.974,8.974,0,0,0,46.8,7.376a3.282,3.282,0,0,0-.6-4.816c-1.043-.9-.959-1.513.315-2,.616-.235,1.268-.376,1.9-.56ZM37.717,38.365,37.6,38.2c-.554,0-1.108-.021-1.66,0-1.654.076-3.306.219-4.96.247a7.94,7.94,0,0,0-5.708,2.467Q15.081,51.133,4.873,61.327c-.793.794-1.624,1.556-2.354,2.4a3.406,3.406,0,0,0,1.853,5.546,3.8,3.8,0,0,0,3.715-1.333Q19.88,56.118,31.7,44.315c2-1.994,4.012-3.967,6.019-5.95m-8.3-1.6a1.405,1.405,0,0,0,.316.1c2.238-.1,4.475-.208,6.713-.323A8.242,8.242,0,0,0,42.056,34q8.216-8.259,16.473-16.477c1.076-1.076,2.166-2.137,3.217-3.237a1.958,1.958,0,0,0,.031-2.809,2.01,2.01,0,0,0-2.812-.018c-.259.23-.5.484-.742.73q-8.718,8.721-17.433,17.444a7.346,7.346,0,0,1-4.529,2.309,5.324,5.324,0,0,0-2.766.934C32.014,34,30.843,35.454,29.42,36.761m11.7-20.914A5.411,5.411,0,0,1,44.7,13.663c.311-.07.626-.122.935-.2,3.962-1.016,6.557-5.2,6.342-8.09-.158-2.129-1.341-3.6-3.159-3.6-.23,0-.524-.086-.673.137-.182.271.135.42.253.6a4.728,4.728,0,0,1,.256,5,8.535,8.535,0,0,1-2.6,3,12.681,12.681,0,0,1-3.957,1.858,1.662,1.662,0,0,0-1.384,2.016,4.2,4.2,0,0,0,.415,1.468m3.586-.487c-.417.168-.846.31-1.247.509-.562.279-.627.592-.116,1.063.939.866,1.818,1.8,2.722,2.7,1.24,1.242,1.227,1.23,2.419-.058.3-.327.242-.5-.043-.773-1.052-1.019-2.08-2.062-3.118-3.1-.168-.167-.316-.375-.617-.346m12.514-4.388a4.64,4.64,0,0,0-.3-.407q-1.53-1.518-3.064-3.032c-.239-.237-.337-.117-.448.13-.805,1.8-.808,1.8.614,3.216.3.3.584.624.91.9.24.2.4.735.792.481a13.489,13.489,0,0,0,1.5-1.284M48.953,13.81c-.571.3-1.1.606-1.654.852-.4.176-.316.3-.063.542.537.512,1.044,1.057,1.568,1.583,1.266,1.272,1.253,1.257,2.5-.029.292-.3.229-.448-.022-.691-.668-.647-1.316-1.313-1.976-1.967-.109-.109-.238-.2-.35-.29m2.93-2.631a6.52,6.52,0,0,0-1.492,1.556.473.473,0,0,0,.132.2q1.042,1.052,2.09,2.1c.1.095.215.172.344.041.431-.436.869-.866,1.286-1.314.2-.213-.038-.323-.161-.446q-.933-.935-1.871-1.865a3.767,3.767,0,0,0-.329-.267"/><path class="a" d="M384.829,227.884a4.873,4.873,0,0,1-3.152.428.9.9,0,0,1-.507-.762.681.681,0,0,1,.508-.73,8.054,8.054,0,0,1,2.683.018c.176.034.313.265.468.4Z" transform="translate(-320.06 -190.37)"/><path class="a" d="M119.18,58.082a1.276,1.276,0,0,1-.843,1.181,6.719,6.719,0,0,0-4.137,4.168,1.136,1.136,0,0,1-1.179.782,1.1,1.1,0,0,1-1.077-.8,6.561,6.561,0,0,0-4.144-4.143,1.137,1.137,0,0,1-.805-1.16,1.124,1.124,0,0,1,.829-1.135,6.657,6.657,0,0,0,4.066-4.029,1.216,1.216,0,0,1,1.181-.9,1.177,1.177,0,0,1,1.181.89,6.6,6.6,0,0,0,4.062,4.028,1.314,1.314,0,0,1,.866,1.119M116.8,58.1a8.685,8.685,0,0,1-3.711-3.606,9.01,9.01,0,0,1-3.672,3.636,8.66,8.66,0,0,1,3.666,3.619A9.228,9.228,0,0,1,116.8,58.1" transform="translate(-89.842 -43.701)"/><path class="a" d="M66.1,166.853a8.288,8.288,0,0,1-.009,1.037.8.8,0,0,1-.8.754.728.728,0,0,1-.83-.688,15.934,15.934,0,0,1-.023-2.148.751.751,0,0,1,.862-.749.811.811,0,0,1,.8.835c.028.317.005.639.005.958H66.1" transform="translate(-54.089 -138.596)"/><path class="a" d="M66.1,206.655a7.18,7.18,0,0,1-.008.953.793.793,0,0,1-.848.77.732.732,0,0,1-.791-.728,17.42,17.42,0,0,1-.008-2.062.739.739,0,0,1,.833-.767.8.8,0,0,1,.823.8c.031.342.006.689.006,1.033Z" transform="translate(-54.09 -171.984)"/><path class="a" d="M40.532,192.527c-.371,0-.744.023-1.113-.006a.717.717,0,0,1-.7-.8.708.708,0,0,1,.716-.79,20.9,20.9,0,0,1,2.148.007.714.714,0,0,1,.706.8.724.724,0,0,1-.721.787c-.342.029-.689.006-1.034,0" transform="translate(-32.51 -160.299)"/><path class="a" d="M80.02,192.539c-.319,0-.638.009-.957,0a.764.764,0,0,1-.8-.818.735.735,0,0,1,.744-.783c.716-.03,1.437-.034,2.153,0a.8.8,0,0,1,.051,1.577,10.13,10.13,0,0,1-1.195.01v.011" transform="translate(-65.72 -160.306)"/><path class="a" d="M256.432,309.66a1.182,1.182,0,0,1-.878,1.2,6.51,6.51,0,0,0-3.98,4,1.24,1.24,0,0,1-2.409-.047,6.445,6.445,0,0,0-3.941-3.942,1.229,1.229,0,0,1,.012-2.4,6.549,6.549,0,0,0,3.948-3.944,1.245,1.245,0,0,1,1.249-.928,1.225,1.225,0,0,1,1.167.93,6.368,6.368,0,0,0,3.869,3.9,1.231,1.231,0,0,1,.963,1.216m-2.452-.007a8.773,8.773,0,0,1-3.61-3.635A9.024,9.024,0,0,1,246.7,309.7a8.443,8.443,0,0,1,3.658,3.616,10.086,10.086,0,0,1,3.623-3.658" transform="translate(-205.115 -254.936)"/><path class="a" d="M369.166,242.524a8.2,8.2,0,0,1-.009,1.034.792.792,0,0,1-.85.768.727.727,0,0,1-.783-.734,16.879,16.879,0,0,1,0-2.065.742.742,0,0,1,.838-.762.769.769,0,0,1,.8.8c.025.316,0,.637,0,.955" transform="translate(-308.575 -202.165)"/><path class="a" d="M368.982,202.768a10.255,10.255,0,0,1-.007,1.035.782.782,0,0,1-.777.761.744.744,0,0,1-.85-.667,7.229,7.229,0,0,1,.023-2.3.683.683,0,0,1,.8-.6.781.781,0,0,1,.8.737,8.579,8.579,0,0,1,.008,1.034Z" transform="translate(-308.388 -168.771)"/><path class="a" d="M343.593,228.558c-.318,0-.636,0-.955,0a.716.716,0,0,1-.786-.794c0-.48.222-.815.764-.816.663,0,1.326,0,1.989,0a.729.729,0,0,1,.792.795.72.72,0,0,1-.77.813c-.344.02-.689,0-1.034,0" transform="translate(-287.047 -190.561)"/></g></g></svg>