<?xml version="1.0" encoding="UTF-8"?>
<svg id="Capa_1" data-name="Capa 1" xmlns="http://www.w3.org/2000/svg" xmlns:xlink="http://www.w3.org/1999/xlink" viewBox="0 0 327 279">
  <defs>
    <style>
      .cls-1 {
        fill: url(#Degradado_sin_nombre_7-2);
      }

      .cls-2 {
        fill: url(#Degradado_sin_nombre_7);
      }
    </style>
    <linearGradient id="Degradado_sin_nombre_7" data-name="Degradado sin nombre 7" x1="222.05" y1="69.51" x2="44.59" y2="171.96" gradientUnits="userSpaceOnUse">
      <stop offset="0" stop-color="#efc981"/>
      <stop offset=".13" stop-color="#edcd92"/>
      <stop offset=".28" stop-color="#ead4ac"/>
      <stop offset=".73" stop-color="#c58511"/>
      <stop offset=".94" stop-color="#e4b76c"/>
      <stop offset="1" stop-color="#eec687"/>
    </linearGradient>
    <linearGradient id="Degradado_sin_nombre_7-2" data-name="Degradado sin nombre 7" x1="306.56" y1="88.26" x2="140.52" y2="184.12" xlink:href="#Degradado_sin_nombre_7"/>
  </defs>
  <path class="cls-2" d="m173.82,203.62c4.03,5.92,9.27,11.69,16.76,12.62,7.81.97,15.04-3.83,19.76-9.69,6.62-8.21,11.87-17.78,17.12-26.89,6.67-11.59,13-23.44,18.13-35.8,2.01-4.85,4.19-10.01,4.86-15.25.85-6.69-1.52-13.59-5.41-18.98-9.21-12.76-25.31-17.58-39.61-10.38-9.71,4.88-16.06,13.46-21.15,22.82-4.23-5.62-8.78-11.11-14.11-15.52-11.11-9.19-29.62-10.19-36.95,4.26-8.04,15.84,2.48,31.77,10.75,44.96,4.69,7.47,9.23,15.07,13.83,22.64-2.07,4.46-4.14,8.91-6.22,13.37-4.04,8.69-8.08,17.37-12.11,26.05-3.37,7.25-6.44,14.81-10.99,21.43-3.49,5.08-8.54,9.75-15.1,9.45-6.56-.31-11.92-5.44-15.98-10.11-5.35-6.15-9.63-13.34-13.95-20.23-4.69-7.48-9.14-15.12-13.35-22.88-8.2-15.15-15.48-30.79-21.7-46.85-6.35-16.39-12.66-33.64-15.15-51.11-2.19-15.33.08-31.4,10.82-43.19,9.32-10.24,22.94-16.62,36.7-17.8,34.34-2.95,63.08,20.4,85.71,43.36,4.03,4.09,7.91,8.33,11.96,12.4,4.51,4.53,11.52-2.48,7.01-7.01-21.43-21.52-42.86-44.16-72.48-54.01-27.83-9.25-61.08-4.4-79.91,19.79-21.83,28.06-7.28,66.55,3.81,95.99,11.92,31.64,27.5,62.05,46.72,89.9,8.05,11.67,19.92,24.64,35.65,21.18,14.37-3.17,21.12-18.68,26.66-30.65,6.03-13.03,12.05-26.05,18.08-39.08,3.21,5.14,6.46,10.24,9.86,15.23Zm54.29-97.43c6,2.37,11.4,7.45,13.9,13.42,2.29,5.48.79,10.67-1.09,15.98-4.12,11.64-9.99,22.7-15.95,33.48-5.32,9.61-10.9,19.11-17.01,28.25-3.36,5.02-8.03,10.51-14.51,10.97-7.25.52-11.75-7.14-15.06-12.44-3.43-5.49-6.83-10.99-10.25-16.48.45-.97.89-1.93,1.34-2.9,7.6-16.43,14.56-33.39,23.1-49.35,6.64-12.41,19.78-27.15,35.52-20.93Zm-79.89,41.13c-4.09-6.62-8.73-13.75-9.5-21.69-.61-6.38,1.48-13.99,7.92-16.67,12.75-5.3,23.71,7.21,31.58,15.26,1.09,1.12,2.13,2.27,3.21,3.41-1.88,3.85-3.62,7.73-5.35,11.46-4.7,10.12-9.41,20.23-14.11,30.35-4.58-7.37-9.19-14.72-13.75-22.1Z"/>
  <path class="cls-1" d="m294.44,74.36c-4.2-28.44-31.17-46.8-60.15-46.86-20.92-.04-41.81,11.56-57.5,23.33-2.37,1.78,2.07,7.59,4.31,6.16,3.53-2.24,7.69-5.63,11.65-7.99,9.38-5.58,18.82-10.37,29.64-12.44,12.59-2.4,26.46-.66,37.62,5.84,11.19,6.51,20.13,16.78,22.88,29.6,3.23,15.04.73,30.78-4.16,45.15-4.98,14.65-10.81,29.12-16.88,43.34-5.84,13.68-12.18,27.15-19.3,40.21-3.5,6.43-7.26,12.72-11.2,18.89-3.88,6.1-7.74,12.46-12.27,18.1-3.91,4.87-9.33,10.6-15.95,11.27-4.68.47-8.46-2.51-11.85-5.53-6-5.36-10.97-11.5-15.4-17.93-3.6-5.22-12.19-.27-8.56,5,4.49,6.51,9.77,12.81,15.54,18.22,3.8,3.56,8.1,7.08,13.1,8.78,6.06,2.06,13.02.55,18.51-2.42,13.27-7.17,21.53-22.33,28.9-34.86,8.35-14.19,15.81-28.9,22.52-43.94,6.82-15.3,12.95-30.9,18.76-46.62,5.83-15.78,12.3-38.27,9.79-55.32Z"/>
</svg>