<svg xmlns="http://www.w3.org/2000/svg" xmlns:xlink="http://www.w3.org/1999/xlink" width="85" height="86" viewBox="0 0 85 86"><defs><style>.a{clip-path:url(#a);}</style><clipPath id="a"><rect width="85" height="86" transform="translate(0 0.173)"/></clipPath></defs><g transform="translate(0 -0.173)"><g transform="translate(0 0)"><g class="a" transform="translate(0 0)"><path d="M38.08,0c.566.4,1.263.311,1.889.5,6.137,1.839,10,6.082,12.431,11.8a12.631,12.631,0,0,1,1.01,6.337.666.666,0,0,0,.2.6,4.342,4.342,0,0,1,1.114,5.133,4.563,4.563,0,0,1-4.487,2.841c.207.429.657.359.964.541a4.7,4.7,0,0,1,2.36,4.655,4.637,4.637,0,0,1-3.829,3.887c-.6.111-.732.312-.817.862a27.931,27.931,0,0,1-4.84,12.286,1.016,1.016,0,0,1-.173.228c-1.777,1.355-2.11,3.344-2.376,5.369-.1.755-.233,1.507-.368,2.257-.093.517.028.792.606.956,1.7.485,1.651.5,2.263-1.168,2.931-8,8.61-12.969,16.977-14.328a21.362,21.362,0,0,1,24.3,16.843,9.493,9.493,0,0,0,.418,2.215v4.21a10.257,10.257,0,0,0-.411,2.225A21.53,21.53,0,0,1,65.644,85.3c-8.172.368-14.652-2.928-19.263-9.7A20.639,20.639,0,0,1,42.9,62.56c.034-.641-.265-.806-.766-.972-.636-.211-.573.331-.727.616a5.524,5.524,0,0,0-.289.807Q37.429,73.525,33.75,84.044a2.435,2.435,0,0,1-1.219,1.493h-.765a2.487,2.487,0,0,1-1.313-1.655q-3.93-10.48-7.871-20.956c-.784-2.09-.773-2.045-2.958-2.093-.989-.022-1.277.356-1.265,1.274q.049,3.776,0,7.553a.95.95,0,0,0,.653.987A4.3,4.3,0,0,1,21.42,74.49,4.616,4.616,0,0,1,17.6,79.177a4.688,4.688,0,0,1-5.087-3A4.454,4.454,0,0,1,14.586,70.7a1.247,1.247,0,0,0,.74-1.336c-.029-2.231-.015-4.462-.015-6.693,0-1.2,0-1.2-1.127-.809A17,17,0,0,0,3.061,77.509q0,3.107,0,6.215A1.477,1.477,0,0,1,2,85.259a1.373,1.373,0,0,1-1.727-.623A1.264,1.264,0,0,0,0,84.389v-8.8c.157-.771.275-1.553.478-2.313,2.119-7.917,7.13-12.934,15.08-14.985a1.23,1.23,0,0,0,.916-.7,10.629,10.629,0,0,1,4.983-4.963,1.035,1.035,0,0,0,.4-1.779c-.215-.275-.492-.5-.706-.778A27.318,27.318,0,0,1,15.9,37.256c-.077-.5-.073-.887-.782-.921a4.5,4.5,0,0,1-4.286-3.571,4.631,4.631,0,0,1,2.017-4.882c.361-.259.89-.214,1.185-.666-2.4-.14-4.028-1.3-4.636-3.257a4.356,4.356,0,0,1,1.558-4.935,2.373,2.373,0,0,0,1.216-2.344A10.73,10.73,0,0,1,20.949,6.138a6.857,6.857,0,0,0,3.074-1.5,22.785,22.785,0,0,1,5.688-3.287A40.45,40.45,0,0,1,34.444,0ZM23.748,27.175c-1.5,0-3,.021-4.494-.011-.548-.012-.711.173-.7.708.033,1.88-.023,3.763.042,5.641a26.369,26.369,0,0,0,3.925,13.261A11.6,11.6,0,0,0,41.28,48.015,23.079,23.079,0,0,0,45.934,36.5a67.027,67.027,0,0,0,.217-8.306c.018-1.032-.21-1.187-1.22-1.021-.466.077-.567.475-.775.766-3.264,4.572-9.962,5.29-13.709,1.135a5.206,5.206,0,0,0-4.883-1.906c-.6.058-1.211.009-1.816.011M64.291,82.284A18.37,18.37,0,1,0,45.949,64.25,18.414,18.414,0,0,0,64.291,82.284m-16.829-64.3h.765c2.49,0,2.519-.007,1.947-2.481A16.8,16.8,0,0,0,42.56,4.945a11.073,11.073,0,0,0-6.984-1.83,17.874,17.874,0,0,0-9.667,3.949C24.6,8.073,23.432,9.287,21.576,9.1a1.442,1.442,0,0,0-.467.092c-3.576.9-6.283,4.568-5.835,7.935.043.323-.163.836.47.864.541.024.985.048,1.317-.6a10.145,10.145,0,0,1,5.315-4.857c1.245-.515,1.853-.311,2.5.879a14.054,14.054,0,0,0,3.082,3.863c.661.58.98.507,1.5-.206,3.32-4.513,10.1-5.012,13.749-.867,1.244,1.412,2.391,2.222,4.246,1.788M31.981,79.207l.217-.04q2.945-8.391,5.887-16.783c.567-1.622.375-1.833-1.35-1.477a19.669,19.669,0,0,1-6.543.355,24.648,24.648,0,0,0-4.164-.439c-.8.032-.952.16-.649.934,1.178,3.016,2.294,6.056,3.437,9.085q1.579,4.183,3.166,8.363m4.751-50.5a6.123,6.123,0,1,0-6.115-6.158A6.169,6.169,0,0,0,36.732,28.7M20.573,24.111H26.3c1.279,0,1.278,0,1.264-1.214a3.693,3.693,0,0,1,.017-1.046c.214-.728-.078-.817-.726-.813-4.233.026-8.466.01-12.7.014-1.163,0-1.909.612-1.909,1.54s.734,1.514,1.927,1.517c2.132.006,4.265,0,6.4,0m5.044,29.557c.2,1.141.377,2.067.508,3a.8.8,0,0,0,.625.716,16.739,16.739,0,0,0,10.742.128c.216-.069.533-.041.586-.391a20.272,20.272,0,0,0,.456-3.21,14.824,14.824,0,0,1-12.916-.243M48.378,24.091v.023c.637,0,1.274.01,1.91,0a1.6,1.6,0,0,0,1.762-1.6c-.021-.865-.721-1.452-1.783-1.464-1.21-.013-2.42.023-3.629-.014-.617-.019-.962.038-.75.8.2.728-.351,1.809.16,2.165.536.373,1.533.083,2.329.083M15.306,74.635a1.587,1.587,0,0,0,1.514,1.529,1.611,1.611,0,0,0,1.553-1.59,1.534,1.534,0,0,0-3.067.061m8.9-56.7c-.479-.655-.848-1.161-1.22-1.667-.143-.194-.25-.5-.577-.293a5.014,5.014,0,0,0-2.018,1.959ZM19.93,57.791c1.049,0,1.9,0,2.746,0,.177,0,.472.042.445-.2a13.154,13.154,0,0,0-.36-1.938c-.07-.26-.309-.068-.465.014a6.369,6.369,0,0,0-2.365,2.13M15.508,31.778c0-.317-.02-.636,0-.952.051-.663-.261-.656-.747-.455a1.483,1.483,0,0,0-.5,2.487,1.151,1.151,0,0,0,1.022.4c.448-.13.152-.6.214-.907a2.737,2.737,0,0,0,0-.57m33.706-.026h-.007a1.1,1.1,0,0,0,0,.285c.1.356-.268.956.306,1.033.53.071.77-.463.938-.925a1.272,1.272,0,0,0-.134-1.1c-.2-.349-.5-.675-.889-.593-.407.086-.142.54-.211.823a2.04,2.04,0,0,0-.007.474" transform="translate(-0.307 0.198)"/><path d="M172.595,103.21a4.589,4.589,0,1,1,4.611-4.6,4.574,4.574,0,0,1-4.611,4.6m1.549-4.633a1.532,1.532,0,0,0-3.062.076,1.623,1.623,0,0,0,1.566,1.495,1.64,1.64,0,0,0,1.5-1.571" transform="translate(-136.18 -75.84)"/></g></g><path d="M19.885,3.565a5.882,5.882,0,0,0-8.026.585l-.847.873-.847-.873a5.882,5.882,0,0,0-8.026-.585,6.176,6.176,0,0,0-.426,8.943L10.035,21.1a1.348,1.348,0,0,0,1.949,0l8.323-8.594a6.173,6.173,0,0,0-.422-8.943Z" transform="translate(53.198 53.366)"/></g></svg>